<svg xmlns="http://www.w3.org/2000/svg" viewBox="170 485 2020 510" preserveAspectRatio="xMidYMid meet">
<g transform="translate(0,1568) scale(0.1,-0.1)"
fill="currentColor" stroke="none">
<path d="M6880 10623 c-479 -10 -988 -84 -1545 -225 -489 -124 -902 -275
-1372 -503 -664 -322 -1292 -815 -1645 -1291 -251 -339 -390 -716 -390 -1059
0 -214 38 -382 127 -570 233 -488 804 -846 1635 -1025 590 -127 1163 -148
1843 -70 496 58 1201 233 1672 415 629 243 1256 593 1605 894 36 31 105 90
155 131 192 160 431 421 567 620 159 231 279 499 325 727 27 132 24 425 -5
550 -38 165 -108 316 -210 453 -188 253 -407 428 -737 590 -514 253 -1217 378
-2025 363z m680 -98 c85 -8 215 -23 288 -35 74 -11 137 -20 140 -20 3 0 2 -4
-3 -9 -19 -17 -281 -85 -330 -85 -27 0 -120 12 -205 26 -289 50 -645 77 -1025
79 -139 0 -218 4 -200 9 36 10 303 38 475 50 170 12 670 3 860 -15z m1025
-217 c188 -63 502 -224 610 -312 l30 -24 -30 -8 c-52 -12 -289 -81 -306 -88
-11 -5 -51 16 -125 67 -60 41 -143 92 -184 115 -162 88 -466 205 -658 252 -51
12 -90 25 -87 28 3 4 79 25 168 47 l162 42 150 -39 c83 -21 204 -57 270 -80z
m-1526 72 c219 -22 408 -53 381 -63 -8 -3 -49 -15 -90 -26 -41 -12 -99 -28
-127 -38 -50 -15 -55 -15 -125 6 -204 60 -415 101 -653 126 -88 9 -162 20
-165 22 -12 13 581 -8 779 -27z m-656 -60 c100 -11 211 -25 247 -31 96 -14
344 -70 354 -80 5 -4 -11 -13 -35 -19 -24 -6 -104 -29 -176 -51 l-133 -40
-132 65 c-126 61 -287 119 -408 146 -30 7 -62 16 -70 21 -28 16 168 9 353 -11z
m-678 -5 c103 -8 375 -68 490 -107 50 -17 144 -55 210 -84 115 -50 119 -53 92
-63 -16 -6 -34 -11 -41 -11 -7 0 -98 -25 -201 -55 -104 -30 -196 -55 -203 -55
-8 0 -50 32 -95 71 -106 94 -203 165 -326 240 -56 33 -98 65 -95 71 4 6 24 8
48 4 22 -3 77 -8 121 -11z m-271 -32 c48 -24 182 -111 261 -168 60 -44 245
-198 245 -205 0 -8 -395 -102 -436 -104 -37 -1 -38 0 -52 49 -28 98 -124 380
-139 408 -8 16 -12 35 -9 43 8 20 65 9 130 -23z m2330 -14 c288 -73 486 -144
696 -250 143 -72 280 -155 280 -170 0 -5 -12 -11 -27 -15 -26 -5 -368 -99
-477 -130 l-48 -14 -72 66 c-165 152 -470 328 -691 399 -63 20 -115 40 -115
44 0 5 42 20 93 35 50 15 119 36 152 46 33 10 66 19 74 19 8 1 69 -13 135 -30z
m-2515 -41 c12 -35 38 -115 57 -178 19 -63 44 -140 55 -171 25 -72 24 -79 -7
-79 -15 0 -38 -12 -56 -31 -17 -16 -51 -38 -77 -48 -25 -10 -53 -22 -62 -25
-13 -6 -17 2 -22 40 -2 25 -11 50 -18 55 -8 5 -49 9 -91 9 -43 0 -78 2 -78 5
0 20 104 245 153 330 42 74 103 155 116 155 5 0 18 -28 30 -62z m-249 -127
c-29 -50 -71 -136 -94 -193 l-43 -103 -154 -5 c-85 -3 -155 -6 -156 -5 -6 2
131 139 183 183 119 101 301 228 313 217 2 -2 -20 -44 -49 -94z m2301 18 c157
-56 340 -135 441 -192 103 -57 348 -239 348 -258 0 -3 -30 -14 -66 -23 -37 -9
-79 -23 -94 -31 -15 -8 -30 -11 -34 -8 -3 4 -6 29 -6 57 0 67 -16 124 -38 130
-9 3 -197 8 -417 12 l-400 6 -45 42 c-60 55 -154 126 -213 161 -27 15 -45 31
-40 35 4 5 78 27 163 49 85 23 175 48 200 55 25 8 48 15 51 15 3 1 70 -22 150
-50z m-2921 -119 c-14 -11 -54 -35 -90 -55 -207 -112 -258 -142 -473 -282
-245 -160 -371 -256 -548 -415 -50 -45 -104 -84 -128 -93 -66 -23 -240 -67
-251 -63 -24 8 287 253 515 405 261 174 509 308 865 468 139 62 148 65 110 35z
m2283 -6 c56 -29 180 -114 237 -163 l35 -30 -386 -1 -387 0 -27 36 c-15 19
-25 38 -22 41 5 5 105 33 336 94 63 16 122 34 130 39 23 13 26 13 84 -16z
m-2023 2 c0 -2 -43 -46 -95 -97 -81 -80 -103 -96 -143 -104 -51 -12 -43 -1
-217 -275 -68 -108 -71 -111 -120 -125 -76 -21 -246 -65 -253 -65 -11 0 110
119 243 239 209 189 244 215 530 403 38 25 55 33 55 24z m4698 -135 c112 -96
231 -242 298 -365 39 -72 106 -245 99 -256 -2 -4 -30 -12 -61 -19 -31 -7 -109
-29 -173 -48 -64 -19 -122 -35 -129 -36 -8 -1 -24 29 -42 80 -71 204 -180 367
-359 538 -34 32 -58 62 -54 65 5 4 40 15 80 24 39 9 111 30 160 45 48 16 94
29 100 30 7 1 43 -26 81 -58z m-5127 -59 c-147 -117 -259 -218 -401 -357 -135
-133 -172 -165 -205 -173 -22 -5 -83 -20 -135 -32 -52 -12 -101 -25 -110 -27
-44 -15 285 251 420 338 30 20 101 66 157 103 94 62 291 176 303 175 3 0 -10
-12 -29 -27z m4729 -129 c62 -64 133 -149 172 -208 103 -155 181 -333 154
-353 -6 -5 -103 -32 -216 -62 -113 -29 -249 -68 -302 -86 l-98 -33 -10 42
c-44 173 -198 445 -342 602 -28 31 -49 57 -47 58 2 2 29 9 59 16 78 19 366 97
420 115 90 29 94 27 210 -91z m-1338 31 c13 -11 64 -47 115 -80 72 -47 93 -65
97 -88 10 -47 7 -336 -3 -336 -5 0 -101 62 -213 137 -112 75 -285 192 -385
258 -101 67 -179 125 -175 129 4 4 127 6 274 4 253 -3 268 -4 290 -24z m-2562
-1 c0 -5 -4 -57 -10 -118 -17 -194 -49 -574 -65 -765 -8 -102 -24 -288 -35
-415 -26 -302 -41 -480 -43 -535 -2 -40 0 -45 21 -48 28 -4 36 5 100 118 105
183 233 401 295 501 100 162 356 587 377 628 11 20 30 54 43 76 l24 40 121 3
122 3 0 -161 c0 -100 -4 -170 -11 -183 -16 -31 -202 -333 -309 -502 -32 -49
-85 -136 -119 -193 -67 -113 -186 -306 -350 -567 -59 -93 -138 -223 -176 -287
l-70 -117 -282 -1 c-156 0 -283 3 -283 7 0 3 9 103 20 222 39 423 60 682 90
1096 16 231 35 462 41 512 6 51 8 97 4 103 -3 5 -19 10 -35 10 -34 0 -32 3
-165 -225 -207 -354 -295 -501 -408 -685 -66 -107 -150 -244 -187 -305 -37
-60 -116 -189 -175 -285 -60 -96 -145 -236 -190 -310 l-82 -135 -225 0 c-156
0 -224 3 -220 10 4 6 23 36 43 66 19 29 59 92 89 139 29 47 63 101 76 120 12
19 54 89 94 155 282 465 583 957 654 1068 32 50 108 173 169 272 60 99 146
236 191 305 45 69 115 180 155 248 42 71 83 127 95 132 26 11 616 13 616 3z
m1880 -1 c0 -11 -95 -171 -146 -247 -23 -33 -57 -87 -76 -120 -19 -33 -95
-154 -168 -270 -130 -206 -313 -502 -381 -618 -68 -116 -64 -137 -64 371 l0
457 -359 3 -359 2 6 113 c4 61 7 158 7 215 l0 102 770 0 c424 0 770 -4 770 -8z
m-1643 -266 c-2 -276 -17 -256 190 -256 l153 0 -39 -77 c-21 -43 -53 -97 -69
-119 -28 -38 -37 -43 -104 -58 -41 -9 -132 -34 -203 -56 -70 -22 -131 -37
-135 -35 -4 3 -6 15 -4 27 2 13 15 158 29 323 14 165 28 330 31 367 l6 67 62
14 c33 8 66 15 73 16 8 1 11 -56 10 -213z m2971 73 c80 -95 178 -242 229 -344
41 -80 93 -215 93 -239 0 -7 -31 -20 -72 -31 -104 -26 -508 -141 -541 -154
-61 -23 -57 -48 -55 390 l3 401 120 38 c141 45 130 48 223 -61z m-1236 -181
c86 -57 163 -107 172 -113 13 -9 10 -18 -23 -68 -21 -32 -58 -93 -82 -137 -24
-44 -48 -79 -54 -79 -5 0 -48 26 -95 59 -47 33 -122 83 -167 112 -46 29 -83
56 -83 60 0 4 27 48 60 99 33 50 70 108 82 130 12 21 24 39 27 39 3 0 77 -46
163 -102z m-2985 -60 c-18 -29 -98 -156 -177 -283 -79 -126 -169 -270 -200
-320 -31 -49 -69 -111 -84 -136 -14 -25 -34 -53 -44 -62 -16 -15 -302 -100
-310 -92 -2 1 13 47 34 101 87 234 246 502 410 690 l54 62 112 30 c145 40 221
60 231 61 4 1 -7 -23 -26 -51z m-464 -90 c-6 -7 -33 -42 -60 -78 -149 -192
-285 -440 -348 -636 l-39 -121 -41 -11 c-22 -7 -116 -32 -210 -56 -93 -25
-203 -56 -242 -70 -63 -22 -73 -23 -73 -9 0 22 118 246 177 336 62 94 147 206
218 287 101 115 249 261 280 278 27 14 301 89 334 91 9 1 10 -3 4 -11z m6201
-39 c12 -60 6 -335 -9 -421 -16 -92 -45 -194 -77 -275 -21 -51 -21 -51 -87
-68 -36 -9 -109 -29 -162 -46 -124 -38 -134 -38 -115 -1 8 15 26 81 42 147 25
107 28 139 28 300 1 99 -3 204 -7 232 -7 41 -6 54 5 57 36 11 364 104 369 105
4 1 9 -13 13 -30z m-2420 -37 c45 -32 168 -116 274 -186 106 -71 195 -133 199
-139 10 -17 16 -377 6 -377 -5 0 -46 26 -91 58 -45 31 -155 105 -244 164 -90
59 -178 119 -196 135 l-34 28 -5 188 c-3 103 -2 187 2 187 5 0 45 -26 89 -58z
m-4357 -119 c-248 -258 -415 -501 -512 -747 -29 -75 -33 -80 -70 -92 -22 -6
-100 -30 -173 -54 -74 -23 -136 -39 -139 -36 -9 9 104 243 164 338 133 211
367 490 473 563 28 19 86 41 178 65 76 20 139 35 141 33 2 -1 -26 -33 -62 -70z
m4197 -452 c-3 -3 -66 -22 -142 -43 -130 -36 -182 -45 -182 -32 0 14 146 290
210 398 39 65 78 135 88 155 17 35 17 32 23 -219 4 -140 5 -257 3 -259z m2121
422 c16 -186 -11 -414 -70 -602 l-25 -80 -48 -15 c-26 -8 -105 -31 -177 -50
-122 -33 -299 -86 -337 -101 -22 -9 -22 -8 -4 42 40 114 61 367 45 538 -7 72
-13 141 -13 154 -1 22 8 26 119 56 198 54 295 82 390 114 50 16 95 29 102 30
7 1 14 -30 18 -86z m-2638 -198 c87 -58 166 -110 175 -117 16 -12 11 -24 -55
-143 -40 -71 -76 -135 -80 -142 -5 -8 -36 9 -102 55 -51 37 -134 93 -184 125
-50 32 -91 65 -91 73 0 8 31 61 70 118 38 57 73 111 76 120 3 9 12 16 20 16 7
0 84 -47 171 -105z m-1243 68 c-17 -26 -91 -147 -319 -523 -48 -80 -90 -147
-93 -150 -3 -3 -1 38 3 90 4 52 15 187 24 299 12 160 19 205 31 211 23 12 333
98 354 99 18 1 18 0 0 -26z m3173 -20 c5 -16 8 -125 7 -243 0 -195 -3 -227
-28 -345 -15 -71 -28 -130 -29 -130 -1 -1 -58 -17 -127 -35 -69 -18 -210 -59
-315 -91 -104 -32 -191 -56 -192 -55 -2 1 -4 170 -5 375 l-3 373 112 28 c61
16 192 51 290 79 299 85 280 82 290 44z m-2598 -369 c1 -146 -2 -204 -11 -216
-15 -18 -76 -54 -81 -47 -3 2 -20 59 -39 127 l-35 122 52 83 c28 45 62 104 76
131 22 44 24 46 30 25 4 -13 7 -114 8 -225z m-1595 34 c-7 -68 -22 -249 -34
-403 -12 -154 -25 -283 -29 -286 -3 -3 -24 -11 -46 -17 -22 -6 -80 -22 -130
-36 -49 -14 -93 -22 -97 -18 -12 12 -45 190 -58 315 l-12 107 44 73 c48 78
130 216 138 232 46 91 74 125 108 134 81 20 117 28 123 25 3 -2 0 -58 -7 -126z
m2786 -83 l0 -65 -155 0 -155 0 0 24 c0 21 7 27 53 39 28 8 93 26 142 39 50
14 96 26 103 27 8 1 12 -18 12 -64z m-3730 -30 c0 -3 -19 -35 -43 -72 -24 -38
-80 -129 -124 -203 -88 -148 -153 -247 -153 -234 0 101 35 410 49 432 4 6 63
27 131 46 137 38 140 38 140 31z m4060 -172 c124 -82 241 -159 262 -171 20
-12 39 -29 42 -38 3 -9 6 -97 6 -196 0 -202 4 -194 -73 -137 -61 44 -737 492
-831 550 -88 54 -86 67 7 56 28 -4 111 -4 184 0 l133 6 0 38 c0 20 3 45 6 54
6 14 9 14 23 2 9 -8 117 -82 241 -164z m-1710 63 c21 -62 26 -88 17 -92 -30
-11 -192 -52 -195 -49 -2 2 9 23 25 47 16 24 45 70 63 103 37 67 51 87 57 82
2 -2 16 -43 33 -91z m3810 52 c0 -21 -92 -182 -171 -298 -151 -222 -420 -515
-568 -618 -46 -32 -238 -98 -250 -86 -3 2 36 46 85 97 150 153 294 332 375
465 24 40 57 94 73 120 16 26 47 89 68 139 39 90 42 93 82 104 22 6 97 28 166
49 145 44 140 43 140 28z m-3393 -66 c331 -219 488 -322 558 -364 l80 -48
-222 0 -223 0 -25 -40 -25 -40 -43 30 c-101 73 -198 139 -278 190 -62 39 -85
59 -81 70 3 8 36 66 74 128 37 62 68 117 68 122 0 21 32 8 117 -48z m-3122 11
c-21 -47 -37 -204 -38 -364 -2 -171 -3 -177 -28 -215 -14 -21 -56 -87 -93
-146 -37 -60 -69 -108 -70 -108 -1 0 -87 -27 -191 -60 -104 -33 -190 -58 -192
-56 -2 1 -13 47 -25 102 -40 180 -25 503 31 653 l16 44 185 54 c207 60 391
111 404 112 4 1 5 -7 1 -16z m6065 -68 c0 -17 -102 -204 -157 -288 -153 -237
-442 -570 -537 -619 -33 -17 -331 -98 -360 -98 -6 0 8 19 31 43 157 164 356
492 433 715 28 80 36 93 59 98 45 11 322 92 416 123 92 30 115 35 115 26z
m-3310 -125 c16 -40 20 -31 -148 -302 -76 -123 -168 -272 -204 -333 -37 -60
-80 -129 -97 -152 -31 -43 -84 -79 -101 -68 -10 6 -110 184 -110 195 0 5 31
58 69 118 39 61 77 123 86 139 8 15 59 100 113 188 l98 160 79 23 c44 13 105
32 135 41 30 10 58 19 61 20 4 0 12 -13 19 -29z m-3440 11 c0 -5 -6 -26 -14
-47 -34 -98 -49 -231 -43 -397 5 -151 14 -210 51 -324 6 -20 2 -24 -51 -38
-32 -9 -114 -34 -183 -56 -69 -21 -128 -35 -131 -31 -11 12 -37 132 -50 227
-15 115 -6 290 21 420 30 139 34 145 105 167 310 96 295 92 295 79z m1521
-137 c6 -43 19 -116 30 -162 11 -47 18 -86 16 -88 -5 -5 -312 -82 -315 -79 -4
4 58 109 146 250 41 66 82 131 89 143 8 13 17 21 20 19 2 -3 9 -40 14 -83z
m4579 71 c0 -14 -53 -141 -89 -212 -107 -215 -266 -447 -391 -572 -67 -68
-125 -112 -133 -100 -1 2 -1 164 1 360 l4 357 46 9 c69 15 406 111 482 137 74
26 80 28 80 21z m-1890 -528 l0 -284 -245 -7 c-135 -4 -250 -4 -254 -1 -5 3
19 51 54 108 66 105 191 314 241 402 15 28 33 53 39 57 5 4 45 8 88 8 l77 0 0
-283z m321 269 c3 -3 2 -29 -1 -58 l-5 -53 -90 -27 c-139 -41 -135 -43 -135
51 0 67 3 80 18 84 23 6 207 8 213 3z m-960 -151 c111 -74 204 -137 206 -139
2 -1 -22 -43 -53 -92 -31 -49 -67 -110 -81 -136 -14 -27 -29 -48 -35 -48 -5 0
-40 25 -79 55 -70 57 -223 163 -292 203 l-37 21 65 107 c36 58 65 108 65 110
0 6 31 54 35 54 1 0 94 -61 206 -135z m-1671 -134 c-11 -133 -20 -244 -20
-247 0 -43 -192 324 -206 393 -5 28 -5 28 118 64 68 19 124 34 126 33 1 0 -7
-110 -18 -243z m2833 -358 c5 -4 85 -10 178 -13 l169 -5 -25 -37 c-30 -44 -42
-51 -138 -82 -109 -36 -391 -116 -406 -116 -9 0 -11 7 -7 23 45 163 80 383 92
579 l7 117 56 24 56 24 5 -253 c3 -139 9 -256 13 -261z m-3137 490 c52 -160
178 -398 299 -563 53 -71 53 -72 -39 -90 -34 -6 -167 -41 -296 -77 -129 -36
-251 -68 -271 -70 -34 -5 -39 -1 -113 78 -99 107 -206 242 -206 262 0 9 36 75
81 149 103 168 130 209 149 219 17 9 358 106 378 108 7 0 15 -7 18 -16z m3629
-281 c94 -63 172 -121 174 -130 3 -13 -24 -14 -245 -8 -136 4 -269 12 -295 17
-43 9 -47 13 -53 47 -3 20 -6 110 -6 199 l0 162 128 -86 c70 -48 204 -138 297
-201z m-701 171 c-20 -239 -95 -630 -127 -659 -6 -6 -79 -28 -162 -49 -82 -21
-175 -46 -205 -56 -30 -10 -60 -19 -66 -19 -6 0 -19 28 -29 63 -9 34 -37 121
-61 192 -24 72 -44 131 -44 133 0 1 100 2 223 2 122 0 229 5 237 10 12 8 15
42 15 202 l0 193 105 27 c58 15 108 27 112 27 4 1 5 -29 2 -66z m-1724 -289
c0 -6 -28 -18 -62 -27 -35 -9 -73 -19 -85 -23 -39 -11 -28 17 55 150 l25 40
33 -65 c18 -35 33 -69 34 -75z m-2406 114 c-4 -7 -24 -38 -44 -68 -44 -65 -54
-93 -46 -126 l6 -24 293 0 292 -1 35 -52 c40 -59 161 -200 203 -235 15 -13 27
-29 27 -35 0 -7 -48 -24 -109 -40 -87 -22 -260 -73 -422 -124 -37 -11 -259
197 -379 357 -62 83 -150 239 -150 266 0 8 253 90 288 93 8 1 10 -4 6 -11z
m5915 -61 c-2 -1 -40 -30 -84 -63 -203 -153 -330 -235 -597 -387 -121 -69
-157 -85 -97 -42 19 13 39 28 44 32 6 5 54 39 108 77 108 75 188 139 288 231
103 94 137 114 240 139 81 19 114 24 98 13z m-6273 -64 c12 -53 94 -198 160
-286 71 -94 202 -229 272 -280 23 -17 42 -33 42 -36 0 -6 -268 -91 -311 -98
-21 -4 -46 11 -125 75 -120 97 -178 157 -273 285 -74 99 -154 243 -145 259 3
4 15 8 27 9 12 0 90 22 172 49 83 26 156 48 162 49 7 1 16 -11 19 -26z m5872
-46 c-185 -156 -362 -287 -498 -367 -270 -159 -457 -260 -510 -275 -14 -4 23
24 81 63 180 119 287 203 457 361 89 82 171 155 183 161 20 11 270 77 299 79
9 1 5 -8 -12 -22z m-2943 -24 l25 -28 379 2 379 3 32 -103 c17 -56 45 -146 62
-200 19 -57 28 -101 22 -106 -9 -8 -440 -122 -460 -121 -29 0 -305 319 -405
467 -27 39 -53 74 -59 78 -10 6 -14 35 -5 35 2 0 16 -12 30 -27z m-58 -96
c103 -155 180 -252 290 -367 58 -61 104 -112 102 -115 -2 -2 -56 -18 -119 -35
-63 -17 -173 -47 -243 -66 l-128 -35 -87 47 c-132 71 -294 179 -432 291 -150
121 -210 180 -189 187 8 3 149 40 314 82 402 103 398 102 415 103 8 0 42 -39
77 -92z m-503 74 c-5 -5 -76 -28 -159 -51 -82 -23 -163 -46 -180 -51 -27 -9
-33 -7 -55 20 -14 16 -33 43 -43 60 l-18 31 232 0 c144 0 229 -4 223 -9z
m2986 -113 c-158 -147 -597 -465 -748 -542 -85 -43 -80 -35 30 52 87 68 221
211 314 334 83 109 80 107 302 172 161 48 169 47 102 -16z m-3285 -186 c162
-156 352 -295 516 -377 39 -20 68 -39 65 -42 -8 -8 -330 -103 -373 -110 -66
-11 -422 126 -637 245 -148 81 -335 206 -324 217 3 3 65 21 139 40 173 45 426
112 464 124 17 5 32 10 34 10 2 1 54 -48 116 -107z m2835 99 c0 -20 -203 -231
-335 -349 -129 -115 -343 -278 -352 -268 -2 2 11 28 30 57 47 74 130 249 157
334 13 39 26 76 29 83 3 8 56 27 116 42 81 21 312 93 353 109 1 1 2 -3 2 -8z
m-591 -247 c-68 -170 -233 -464 -260 -464 -4 0 -15 35 -24 78 -9 42 -34 142
-55 222 -22 80 -36 147 -32 150 4 4 75 23 158 44 83 20 168 43 190 51 21 8 44
14 50 15 7 0 -5 -42 -27 -96z m-3010 -17 c124 -94 197 -139 356 -220 166 -84
269 -127 374 -157 60 -18 78 -26 65 -32 -11 -3 -84 -26 -164 -50 -193 -57
-212 -57 -465 20 -220 67 -426 146 -580 222 -130 64 -245 137 -225 144 8 2 69
18 135 35 66 17 179 48 250 70 72 22 136 40 144 40 8 1 57 -32 110 -72z m2561
-21 c0 -2 23 -93 51 -202 28 -109 52 -208 53 -219 3 -52 -87 -13 -295 127
-169 113 -253 183 -229 192 8 2 98 26 200 51 101 26 187 48 189 51 5 5 31 6
31 0z m-3261 -119 c57 -41 199 -126 267 -160 131 -66 496 -199 627 -228 31 -6
57 -15 57 -19 0 -4 -21 -13 -47 -20 -27 -7 -72 -19 -100 -28 -48 -14 -60 -14
-145 2 -213 40 -449 110 -660 196 -113 46 -362 172 -372 188 -4 6 276 95 318
101 5 0 29 -14 55 -32z m2781 -52 c35 -39 170 -142 273 -210 48 -32 87 -62 87
-67 0 -4 -1 -8 -3 -8 -47 0 -293 38 -390 60 -125 29 -433 124 -450 140 -4 3
80 30 188 59 108 28 206 56 218 60 26 10 43 3 77 -34z m-564 -134 c71 -34 317
-117 431 -146 62 -16 110 -31 108 -34 -14 -24 -889 70 -919 99 -5 5 9 13 30
19 22 6 93 26 159 45 143 41 141 41 191 17z m-413 -145 c180 -37 429 -73 627
-92 96 -9 181 -20 189 -24 22 -12 -445 -23 -639 -16 -264 10 -611 44 -628 61
-3 3 -3 7 0 10 8 9 280 83 306 84 12 1 78 -10 145 -23z m-538 -135 c98 -21
399 -57 560 -66 55 -3 127 -9 160 -13 l60 -6 -70 -7 c-110 -10 -366 -10 -530
1 -160 11 -506 48 -514 55 -2 3 2 6 10 9 8 2 41 13 74 24 78 26 139 27 250 3z"/>
<path d="M10504 8751 c-2 -2 -4 -395 -4 -873 l0 -868 110 0 110 0 0 566 c0
318 -5 629 -11 709 -14 181 -10 198 26 121 36 -77 138 -252 255 -441 51 -82
130 -211 175 -285 45 -74 118 -193 163 -265 44 -71 114 -183 154 -249 111
-180 92 -167 226 -159 l112 6 0 867 c0 477 -2 869 -4 871 -2 2 -53 3 -113 1
l-109 -3 -2 -367 c-2 -382 12 -932 27 -1014 4 -27 5 -48 2 -48 -3 0 -35 57
-70 128 -83 164 -276 490 -446 752 -68 105 -258 413 -309 502 l-27 47 -130 3
c-72 2 -133 1 -135 -1z"/>
<path d="M15743 8752 l-623 -2 0 -102 0 -101 250 6 250 6 0 -774 0 -775 120 0
120 0 0 770 0 770 260 0 260 0 0 99 c0 55 -3 101 -7 103 -5 2 -288 2 -630 0z"/>
<path d="M19621 8488 c-217 -615 -511 -1461 -511 -1470 0 -4 55 -8 123 -8
l123 0 37 119 c20 65 60 187 88 270 l51 151 313 0 314 0 6 -22 c4 -13 43 -134
87 -270 l81 -248 133 0 c74 0 134 1 134 3 0 1 -23 68 -51 147 -81 230 -180
515 -274 785 -48 138 -117 336 -155 440 -37 105 -81 228 -98 275 l-30 85 -139
3 -139 3 -93 -263z m258 -59 c16 -63 71 -236 121 -385 50 -148 94 -278 96
-289 5 -20 0 -20 -253 -20 -167 0 -257 4 -256 10 2 6 41 122 88 258 46 136
101 309 120 385 42 160 44 166 50 160 2 -2 18 -56 34 -119z"/>
<path d="M12755 8295 c-218 -45 -399 -223 -460 -452 -9 -32 -19 -105 -22 -163
-9 -164 25 -306 103 -428 133 -206 392 -310 644 -257 209 44 367 187 443 401
112 313 10 658 -243 823 -113 74 -315 107 -465 76z m272 -201 c98 -47 173
-148 209 -281 33 -122 14 -345 -37 -445 -32 -63 -107 -137 -174 -171 -52 -27
-70 -32 -135 -31 -170 0 -301 116 -350 310 -22 86 -27 227 -10 315 23 119 115
255 202 300 90 46 205 47 295 3z"/>
<path d="M16942 8299 c-30 -5 -88 -23 -130 -41 -65 -26 -89 -44 -157 -112
-134 -136 -184 -258 -192 -472 -7 -159 10 -248 68 -373 68 -146 197 -251 365
-296 134 -37 370 -26 501 23 l48 18 0 94 c0 58 -4 94 -10 93 -5 -1 -41 -14
-79 -28 -40 -15 -112 -31 -170 -37 -92 -10 -108 -9 -186 11 -56 14 -103 34
-137 57 -82 56 -151 173 -168 284 -3 25 -9 53 -11 62 -5 17 22 18 423 20 l428
3 -1 120 c-1 138 -18 215 -70 321 -94 192 -298 290 -522 253z m179 -184 c59
-21 133 -96 158 -159 18 -46 41 -148 41 -183 0 -10 -61 -13 -315 -13 l-315 0
0 23 c0 52 52 176 99 235 77 97 217 137 332 97z"/>
<path d="M18415 8300 c-237 -38 -418 -187 -501 -414 -54 -149 -55 -335 -3
-489 38 -116 70 -169 144 -242 172 -171 421 -217 713 -133 l74 22 -5 35 c-3
20 -9 64 -13 99 -4 34 -10 62 -13 62 -4 0 -26 -9 -49 -20 -180 -87 -397 -56
-521 75 -57 60 -71 86 -100 180 -26 81 -30 214 -11 297 39 166 159 295 310
334 81 21 185 13 289 -22 40 -14 75 -23 77 -21 8 8 32 183 25 189 -4 4 -43 17
-86 28 -93 24 -244 33 -330 20z"/>
<path d="M21220 8300 c-107 -20 -171 -51 -243 -119 -61 -57 -90 -122 -95 -218
-10 -178 66 -270 319 -384 201 -90 259 -144 259 -239 0 -175 -236 -234 -487
-120 -36 17 -68 28 -70 26 -2 -2 -9 -45 -15 -96 -13 -111 -16 -107 105 -141
99 -28 308 -33 392 -10 189 53 305 191 305 362 0 91 -32 163 -105 235 -53 54
-84 73 -235 147 -216 105 -245 131 -245 215 0 45 5 64 24 90 64 84 203 101
367 44 50 -18 94 -32 98 -32 3 0 6 17 6 39 0 21 5 62 10 92 6 29 7 56 2 61 -4
4 -44 17 -87 28 -91 23 -238 33 -305 20z"/>
<path d="M13790 8271 c0 -4 27 -80 61 -167 33 -88 69 -181 79 -209 10 -27 46
-122 80 -210 97 -250 200 -524 220 -587 32 -96 28 -93 117 -92 147 2 142 1
158 37 24 52 218 549 341 872 63 165 119 310 124 323 6 13 10 27 10 32 0 11
-190 14 -227 4 -11 -3 -23 -16 -26 -27 -2 -12 -62 -186 -132 -387 -126 -361
-194 -569 -195 -602 0 -9 -4 -19 -9 -22 -4 -3 -20 45 -36 107 -30 126 -53 194
-190 587 -53 151 -102 292 -108 313 l-11 37 -128 0 c-70 0 -128 -4 -128 -9z"/>
<path d="M19273 6574 c-9 -4 -13 -31 -13 -84 0 -83 -4 -90 -56 -90 -16 0 -42
-17 -73 -48 -126 -126 -78 -336 86 -370 l38 -8 0 -75 0 -74 38 -3 37 -3 0 78
0 79 47 12 c63 17 116 72 137 142 19 63 20 82 5 133 -16 60 -72 114 -135 133
l-53 15 -3 82 c-3 74 -5 82 -23 84 -11 1 -26 -1 -32 -3z m-15 -379 c1 -82 -1
-152 -5 -156 -13 -13 -56 14 -80 50 -44 65 -22 214 36 246 14 8 31 13 36 11 6
-1 11 -63 13 -151z m117 143 c38 -17 66 -79 66 -143 0 -77 -45 -155 -91 -155
-19 0 -20 7 -20 155 0 92 4 155 10 155 5 0 21 -5 35 -12z"/>
<path d="M10540 6271 c0 -187 4 -282 11 -286 6 -4 26 -4 45 -1 l34 7 0 124 0
124 121 3 c66 2 123 1 125 -1 2 -2 4 -60 4 -127 0 -114 1 -123 20 -129 11 -3
29 -3 40 0 19 6 20 15 20 286 l0 280 -42 -3 -42 -3 3 -63 c1 -34 -1 -87 -4
-117 l-7 -56 -122 3 -121 3 4 118 3 117 -46 0 -46 0 0 -279z"/>
<path d="M13270 6515 l0 -35 85 0 85 0 0 -244 c0 -235 1 -244 20 -249 11 -3
29 -3 40 0 19 5 20 14 20 249 l0 244 85 0 85 0 0 35 0 35 -210 0 -210 0 0 -35z"/>
<path d="M18279 6523 c-32 -84 -87 -236 -134 -375 l-54 -158 44 0 44 0 25 78
24 77 101 3 100 3 11 -41 c6 -22 20 -61 30 -85 18 -41 22 -45 54 -45 19 0 38
5 41 11 4 5 -3 34 -14 63 -12 29 -55 151 -95 272 l-73 219 -46 3 c-44 3 -48 1
-58 -25z m71 -115 c6 -24 20 -74 31 -111 11 -38 18 -71 16 -74 -8 -7 -115 -16
-130 -10 -13 5 -9 25 21 121 21 64 40 116 44 116 4 0 12 -19 18 -42z"/>
<path d="M11230 6399 c-85 -35 -132 -112 -133 -213 -1 -125 76 -206 195 -206
155 0 242 172 167 327 -35 73 -157 123 -229 92z m122 -79 c38 -29 51 -71 46
-146 -4 -62 -7 -69 -41 -100 -63 -58 -134 -37 -166 49 -27 71 2 187 52 207 37
15 83 11 109 -10z"/>
<path d="M11688 6402 l-78 -3 0 -204 0 -205 48 -2 c144 -6 209 9 247 53 45 54
28 121 -37 155 l-32 16 27 14 c33 18 47 43 47 87 0 69 -65 95 -222 89z m127
-77 c30 -29 31 -39 4 -64 -24 -22 -77 -34 -113 -25 -24 6 -26 11 -26 60 l0 54
55 0 c46 0 60 -4 80 -25z m11 -170 c19 -26 17 -69 -3 -87 -21 -19 -94 -32
-123 -23 -17 5 -20 15 -20 64 0 32 3 61 8 65 4 4 33 6 66 4 42 -3 62 -10 72
-23z"/>
<path d="M12057 6403 c-4 -3 -7 -98 -7 -210 l0 -203 95 0 c115 0 165 17 196
67 29 47 22 113 -16 153 -29 31 -110 54 -163 48 l-27 -3 -3 71 c-3 64 -5 73
-25 78 -29 8 -42 7 -50 -1z m205 -233 c24 -30 23 -64 -4 -94 -18 -21 -34 -27
-73 -29 l-50 -2 -3 64 c-4 91 -2 94 60 89 38 -4 57 -12 70 -28z"/>
<path d="M12729 6387 c-118 -61 -138 -283 -34 -365 43 -34 92 -45 167 -39 77
7 98 18 98 53 0 27 -12 29 -59 13 -81 -28 -191 29 -191 100 l0 31 134 0 c151
0 149 -1 135 73 -10 58 -19 75 -56 108 -56 52 -126 62 -194 26z m137 -71 c19
-19 34 -43 34 -55 0 -20 -5 -21 -95 -21 -52 0 -95 2 -95 5 0 20 32 75 51 89
36 25 67 20 105 -18z"/>
<path d="M13812 6394 c-145 -74 -160 -304 -25 -384 76 -45 226 -35 239 17 4
13 4 26 1 29 -3 3 -31 0 -64 -5 -67 -13 -114 -3 -149 30 -25 24 -50 86 -39 97
4 4 67 5 141 3 l134 -3 0 49 c0 58 -32 127 -72 157 -37 27 -123 32 -166 10z
m112 -55 c24 -11 59 -76 49 -91 -7 -13 -193 -10 -193 3 0 37 61 99 97 99 12 0
33 -5 47 -11z"/>
<path d="M14608 6403 c-2 -5 -3 -98 -3 -208 l0 -200 44 -3 44 -3 -6 96 -7 96
93 -3 92 -3 3 -92 3 -93 39 0 40 0 0 204 c0 129 -4 207 -10 211 -6 4 -24 4
-40 0 l-30 -7 0 -79 0 -79 -95 0 -95 0 6 59 c10 88 1 111 -41 111 -18 0 -35
-3 -37 -7z"/>
<path d="M15179 6387 c-29 -15 -54 -40 -74 -71 -59 -96 -32 -241 57 -302 35
-25 51 -29 108 -29 77 0 116 21 164 87 57 79 42 224 -29 287 -62 55 -154 66
-226 28z m136 -51 c45 -19 65 -61 65 -136 0 -91 -35 -146 -101 -156 -66 -11
-119 59 -119 156 0 62 21 105 63 130 38 24 47 24 92 6z"/>
<path d="M16184 6401 c-87 -22 -139 -101 -138 -211 1 -116 66 -198 163 -208
61 -5 112 11 157 50 45 40 54 59 64 125 9 68 -3 135 -31 174 -39 56 -141 89
-215 70z m118 -78 c33 -30 48 -69 48 -129 0 -168 -170 -207 -220 -51 -20 64 9
159 59 191 31 20 85 15 113 -11z"/>
<path d="M16927 6404 c-9 -10 -9 -412 1 -417 4 -3 22 -2 39 0 35 6 72 54 164
216 l44 79 3 -146 c3 -158 5 -165 57 -152 l25 6 0 204 c0 111 -2 205 -4 207
-3 3 -22 3 -44 1 -34 -3 -42 -9 -60 -45 -25 -47 -145 -243 -156 -255 -4 -4 -6
63 -4 148 l3 155 -30 3 c-17 2 -34 0 -38 -4z"/>
<path d="M17417 6404 c-4 -4 -7 -101 -7 -216 l0 -208 34 0 c19 0 41 7 49 15 8
8 52 78 97 155 45 77 85 140 87 140 3 0 2 -67 -2 -149 l-7 -148 33 -7 c17 -3
37 -2 43 3 8 6 10 74 8 215 l-3 206 -33 0 c-33 0 -49 -12 -71 -51 -10 -20 -85
-138 -137 -219 l-29 -45 3 155 3 155 -30 3 c-17 2 -34 0 -38 -4z"/>
<path d="M18796 6398 c-55 -15 -121 -82 -136 -138 -29 -108 24 -236 113 -269
49 -19 187 -6 187 17 0 4 3 17 6 29 6 23 5 23 -68 17 -62 -6 -79 -4 -102 11
-86 56 -76 228 14 265 20 8 51 10 89 6 60 -7 71 -1 71 39 0 23 -117 38 -174
23z"/>
<path d="M19710 6399 c-49 -15 -65 -32 -51 -57 10 -18 13 -19 56 -5 78 26 145
-3 145 -63 0 -19 -8 -23 -71 -32 -54 -8 -81 -18 -108 -40 -70 -57 -74 -143 -8
-198 26 -22 38 -25 78 -22 25 3 60 15 77 26 37 27 38 27 45 2 4 -15 14 -20 41
-20 l36 0 0 145 c0 163 -12 211 -62 246 -34 25 -125 34 -178 18z m153 -219 c6
-25 -7 -86 -24 -106 -34 -41 -108 -40 -127 1 -21 46 7 86 75 111 53 18 70 17
76 -6z"/>
<path d="M20570 6194 l0 -217 108 7 c119 8 153 22 189 76 44 64 23 139 -50
176 -17 9 -62 19 -101 23 l-71 6 -3 65 c-3 67 -11 80 -49 80 l-23 0 0 -216z
m189 -5 c57 -20 67 -70 22 -113 -23 -22 -40 -28 -78 -30 -26 0 -49 2 -50 7 -2
4 -3 39 -3 77 l0 70 39 0 c21 0 52 -5 70 -11z"/>
<path d="M21387 6393 c-32 -13 -38 -20 -35 -42 3 -28 6 -29 79 -10 61 15 95 6
115 -32 22 -43 13 -55 -46 -63 -72 -10 -126 -33 -155 -68 -33 -39 -40 -71 -26
-118 23 -76 122 -104 195 -55 37 25 56 25 56 1 0 -16 51 -28 64 -16 4 4 7 75
7 157 -2 167 -12 202 -70 240 -41 28 -126 30 -184 6z m171 -242 c3 -36 -1 -46
-31 -76 -41 -41 -86 -46 -117 -15 -26 26 -25 53 3 85 21 25 106 58 132 51 6
-1 11 -22 13 -45z"/>
<path d="M12414 6198 c2 -112 5 -204 5 -205 1 -2 19 -3 41 -3 l40 0 0 205 0
205 -45 0 -46 0 5 -202z"/>
<path d="M14140 6394 c0 -3 27 -47 61 -98 l61 -91 -18 -35 c-10 -19 -40 -64
-66 -99 -27 -35 -48 -68 -48 -73 0 -5 19 -8 42 -6 41 3 44 6 83 70 22 37 45
67 52 68 6 0 30 -31 54 -69 33 -54 49 -70 72 -75 75 -15 74 -4 -3 107 -33 48
-60 96 -60 107 0 11 27 59 59 107 l60 88 -35 3 c-44 4 -51 -2 -94 -77 -19 -33
-40 -61 -46 -61 -5 0 -28 31 -50 70 -39 69 -39 70 -81 70 -24 0 -43 -3 -43 -6z"/>
<path d="M15637 6278 c-8 -147 -18 -183 -64 -225 -43 -40 -41 -67 5 -71 27 -3
39 3 66 31 41 43 56 98 65 224 l6 98 58 3 57 3 0 -176 0 -175 43 0 42 0 -2
202 -2 203 -134 3 -134 3 -6 -123z"/>
<path d="M16560 6195 l0 -205 40 0 40 0 0 175 0 175 90 0 90 0 0 30 0 30 -130
0 -130 0 0 -205z"/>
<path d="M20138 6272 c-6 -141 -22 -191 -75 -230 -23 -17 -26 -24 -17 -39 20
-33 62 -28 98 10 41 43 56 98 65 224 l6 98 58 3 57 3 0 -174 c0 -188 0 -190
53 -180 l27 5 0 204 0 204 -134 0 -133 0 -5 -128z"/>
<path d="M20914 6378 c3 -13 6 -26 6 -30 0 -5 27 -8 60 -8 l60 0 0 -174 c0
-168 1 -175 21 -181 11 -4 31 -4 45 -1 l24 6 0 175 0 175 60 0 60 0 0 30 0 30
-171 0 -171 0 6 -22z"/>
</g>
</svg>
