<svg width="2048" height="667" viewBox="0 0 2048 667" fill="none" xmlns="http://www.w3.org/2000/svg">
<path d="M548.68 109.994C561.812 109.448 578.535 109.295 591.481 110.932C585.375 111.528 574.24 110.287 571.1 112.833C566.18 112.579 553.323 111.587 548.68 109.994Z" fill="white"/>
<path d="M592.462 91.462C664.858 87.0411 760.536 101.055 817.832 150.28C884.564 207.613 865.157 289.849 811.438 348.558C719.237 449.325 571.605 500.243 437.512 507.845C362.827 510.597 265.255 497.315 207.102 445.858C142.165 388.396 165.813 302.375 218.677 246.514C311.727 148.191 459.419 97.057 592.462 91.462ZM377.57 492.494C373.629 491.6 366.578 490.411 362.744 491.077C357.406 492.777 352.111 494.512 346.694 495.949C378.586 499.65 399.15 501.622 431.332 501.309C434.618 501.136 439.549 501.25 442.313 499.903C420.928 497.016 398.888 497.329 377.57 492.494ZM410.258 479.636C408.1 479.486 387.185 485.655 381.639 486.713C409.071 491.971 445.509 493.456 473.599 492.523C475.474 491.081 474.966 491.284 476.043 488.806C455.065 486.48 430.809 481.072 410.258 479.636ZM289.609 465.317C282.543 462.153 266.118 448.654 260.891 450.138C252.075 452.701 242.863 455.53 233.968 457.623C269.246 476.737 288.676 484.034 328.66 492.282C334.728 493.713 346.928 489.389 353.62 487.455C330.792 482.976 310.839 474.823 289.609 465.317ZM458.004 467.185C456.566 466.596 455.961 466.734 454.551 467.072L424.944 475.231C441.836 478.411 470.147 482.679 487.906 483.394C495.832 483.917 503.761 484.399 511.691 484.841C492.977 479.575 476.012 474.561 458.004 467.185ZM343 449.85C335.94 445.471 322.404 433.064 317.504 434.065C302.199 438.582 287.463 443.034 271.913 446.678C301.169 465.319 324.524 472.87 357.899 482.433C373.64 485.915 384.762 478.923 400.437 475.027C380.145 469.541 360.785 461.055 343 449.85ZM549.042 442.236C537.312 445.29 525.541 448.185 513.733 450.921C521.729 458.549 531.224 464.803 540.464 470.871C547.958 475.814 553.758 479.141 562.446 482.126C560.762 475.7 553.878 444.534 550.445 442.043L549.042 442.236ZM505.18 453.192C492.393 457 479.521 460.521 466.577 463.75C481.742 469.07 494.96 473.737 510.763 476.986C522.011 479.538 532.599 480.612 544.078 481.642C540.774 479.51 505.094 453.887 505.18 453.192ZM593.221 431.708C591.549 430.462 592.516 430.799 590.115 431.08C581.009 434.084 567.405 437.593 557.905 439.481C561.276 451.08 564.955 463.852 567.076 475.777L567.992 477.697C575.121 475.769 591.939 439.868 593.221 431.708ZM386.741 417.285C386.431 416.984 383.835 416.965 383.204 417.096C365.786 421.818 346.394 427.321 328.913 431.315C349.178 446.631 375.333 461.015 399.775 468.304C403.882 469.717 408.391 471.17 412.388 472.782C423.288 468.695 436.57 465.088 447.969 462.06C424.169 451.055 405.405 435.433 386.741 417.285ZM640.513 417.131C626.929 421.407 615.324 425.058 601.439 428.36C598.834 439.762 593.164 452.74 587.212 462.862C585.748 465.352 583.271 467.961 584.043 469.804L584.605 469.875C595.98 462.25 638.165 428.319 641.748 417.606L640.513 417.131ZM458.506 398.246C436.723 402.895 415.369 409.307 393.718 414.37C405.917 426.398 428.106 444.421 443.369 452.264C447.8 454.748 452.55 457.53 457.052 459.795C471.561 455.994 486.029 452.028 500.45 447.898C486.819 434.668 470.281 415.626 460.939 399.001C459.644 398.401 459.717 398.185 458.506 398.246ZM683.167 405.21C674.904 407.326 660.631 411.257 652.946 414.796C642.934 428.063 632.811 440.808 620.024 451.54C618.086 453.166 614.343 455.553 613.632 457.675L615.361 457.42C631.626 448.374 674.9 418.636 685.501 405.56C684.488 405.328 684.146 405.126 683.167 405.21ZM211.181 390.11C201.722 393.034 191.315 396.485 181.764 398.659C191.426 419.249 209.036 441.812 228.771 453.297C238.405 450.083 247.618 446.987 257.402 444.267C244.756 434.168 234.728 424.876 225.552 411.184C221.574 405.249 217.524 397.598 214.984 390.526C214.352 390.244 213.718 389.961 213.086 389.677L211.181 390.11ZM726.026 394.173C722.254 395.008 706.435 398.308 703.869 399.829C692.732 406.434 681.832 418.919 671.687 427.327C661.617 435.674 652.022 442.308 641.161 449.363L640.741 450.55L641.571 450.647C669.022 437.629 694.879 421.485 718.628 402.537C720.728 400.829 726.554 396.628 727.408 394.307L726.026 394.173ZM466.811 395.527C480.825 415.912 491.114 428.922 508.719 446.411C520.075 443.208 531.335 439.943 542.837 437.285C546.172 436.283 547.252 436.526 549.48 434.237C546.21 422.479 542.287 411.089 538.939 399.442C520.13 400.567 493.001 401.26 474.013 399.389C471.943 399.184 468.902 396.417 466.811 395.527ZM244.481 380.137C236.862 382.428 228.218 385.23 220.608 387.18C231.331 411.68 245.097 425.936 265.81 442.498C274.348 439.698 282.941 437.066 291.582 434.605C299.245 432.469 306.942 430.449 314.668 428.547C304.526 418.575 298.249 411.375 290.231 399.672C283.026 399.663 242.862 400.295 239.183 398.344C237.314 392.52 243.598 386.41 246.289 380.731L245.423 379.98L244.481 380.137ZM587.031 364.222L587.301 399.19C575.454 399.889 557.922 399.976 545.843 399.435C549.289 409.474 552.565 419.573 555.665 429.725L556.715 432.607C560.574 433.998 589.255 424.867 595.725 423.349C602.641 400.588 604.294 385.339 606.653 361.412L605.827 360.193L604.629 360.142L587.031 364.222ZM347.569 355.074C337.143 358.173 326.654 361.058 316.109 363.725C309.25 374.163 302.794 385.808 296.085 395.789C302.104 403.909 314.014 421.595 323.969 425.506C325.183 425.982 329.815 424.674 331.342 424.261C348.53 419.276 364.564 414.696 382.116 410.88C370.793 396.195 362.583 382.906 355.239 365.783C353.447 361.604 352.174 356.038 349.077 354.768L347.569 355.074ZM763.895 384.805C732.537 390.884 730.873 403.98 705.991 420.162L708.144 422.111C731.128 408.584 742.726 399.546 763.895 384.805ZM613.025 358.073C612.521 376.183 609.68 404.023 603.671 421.251C612.146 418.834 620.756 416.287 629.254 414.005C638.198 411.465 646.212 410.349 652.545 403.654L653.198 401.506C648.217 397.329 631.852 399.635 623.656 399.043C623.704 392.841 624.442 357.951 623.001 354.515L622.29 354.077L613.025 358.073ZM381.975 398.655C384.267 402.061 386.796 406.021 389.183 409.292L415.737 401.777L419.484 400.707L419.654 399.68C414.285 398.216 390.098 399.292 381.975 398.655ZM741.975 320.256C727.915 324.605 704.563 332.017 690.403 334.711C690.324 344.912 690.02 383.004 689.936 395.888C690.384 396.361 690.833 396.834 691.281 397.308C708.191 386.06 739.289 341.059 742.812 321.45L741.975 320.256ZM450.227 378.825C447.622 382.894 443.087 389.099 442.225 393.574L442.96 394.714C444.57 394.433 445.391 394.369 446.95 393.814L456.959 391.315C455.716 388.905 451.568 380.516 450.227 378.825ZM212.24 314.929C210.92 313.833 211.671 314.016 210.022 314.12L180.932 322.769C176.249 340.679 170.931 374.781 180.038 391.333L182.226 392.063C192.112 389.098 202.572 385.767 212.494 383.122C205.338 361.069 204.729 336.971 212.24 314.929ZM564.231 341.68C554.732 358.545 544.784 375.154 534.398 391.489L547.747 391.428L578.798 391.252C578.635 374.711 578.77 358.168 579.201 341.632L564.231 341.68ZM798.514 304.189C787.207 307.672 762.528 315.917 751.571 317.666C745.697 337.023 736.519 355.219 724.442 371.445C719.789 377.733 713.534 384.607 709.327 390.84C709.699 391.051 710.072 391.263 710.445 391.474C717.12 389.947 732.346 386.848 738.152 383.345C758.368 371.148 776.827 344.036 789.682 324.629C792.163 320.885 799.963 307.681 799.572 304.254L798.514 304.189ZM440.797 170.64C425.953 170.842 399.599 170.163 385.859 171.251L306.318 299.498C289.666 326.79 267.592 365.644 249.672 391.073C262.836 390.312 276.03 390.212 289.204 390.773L354.633 283.84C366.36 264.332 377.846 244.427 389.531 224.871C391.103 222.241 392.239 221.634 394.792 220.762C395.658 221.299 397.364 222.127 397.322 223.222C395.94 259.433 389.659 315.134 387.734 349.368L383.882 391.02C400.204 390.929 416.528 390.954 432.849 391.096L494.575 290.955C503.39 276.679 515.821 257.973 523.68 243.634C523.636 234.632 523.461 225.323 523.566 216.351L502.143 216.115C493.672 232.153 435.321 331.169 429.134 335.936C426.504 333.276 427.35 327.04 427.721 323.437C432.925 272.848 435.124 221.095 440.797 170.64ZM378.697 346.211C371.804 348.174 364.104 350.534 357.218 352.277C360.792 361.66 364.625 369.407 369.036 378.445C371.124 382.306 373.435 386.837 375.687 390.529C376.446 384.16 380.377 349.448 378.697 346.211ZM509.566 313.157C501.768 315.542 493.938 317.833 486.085 320.029C476.737 336.394 464.561 357.016 454.132 372.633L463.031 388.465C466.259 390.381 468.846 388.836 470.998 385.873C486.043 365.156 498.178 342.095 511.993 320.488C513.243 318.534 512.488 316.902 512.011 314.931C510.427 313.243 511.141 313.322 509.566 313.157ZM270.989 297.367C253.982 301.69 237.078 307.28 220.506 311.376C212.551 335.089 212.627 357.114 218.784 381.161C228.184 378.565 243.895 372.971 252.052 371.357C257.916 362.259 263.707 353.11 269.423 343.916C268.351 331.392 267.968 320.819 269.945 308.325C270.399 305.454 272.062 299.225 270.989 297.367ZM809.708 301.258L809.31 301.956C805.014 309.63 801.86 317.382 797.001 325.806C784.124 348.127 771.001 361.344 753.944 379.63L754.423 380.727L755.348 380.834C758.647 379.973 767.171 377.818 769.836 376.187C794.748 360.926 817.322 331.937 832.504 307.256C834.379 304.207 839.186 296.091 838.615 293.24L837.348 293.117L809.708 301.258ZM607.609 345.531C602.945 340.511 599.166 341.992 592.626 342.454C588.618 342.898 589.592 342.174 587.435 344.551C586.158 350.307 587.106 352.338 586.853 357.799L597.247 354.951C602.275 353.582 609.183 352.246 607.609 345.531ZM343.112 318.514C338.093 326.559 325.475 345.855 322.038 353.959L322.991 354.686L326.239 353.975C333.987 351.914 341.395 349.9 349.256 348.267C348.132 343.112 344.598 321.437 343.112 318.514ZM383.503 268.175L372.088 270.71C364.813 283.36 357.373 295.916 349.772 308.373C351.068 320.077 352.419 334.213 355.752 345.518C364.991 343.764 371.685 341.207 380.489 338.821C381.619 315.399 384.71 292.056 385.963 268.927L384.801 267.936L383.503 268.175ZM279.387 294.612C278.405 299.952 273.722 328.347 276.15 331.901C280.048 326.469 302.289 291.998 302.308 288.579L302.022 288.253L279.387 294.612ZM748.036 247.202C731.264 251.574 705.735 259.834 689.916 262.63C690.003 281.021 689.252 309.491 690.565 327.066L691.889 327.9L693.255 327.433C708.273 322.865 730.927 315.414 746.052 312.326C749.31 296.898 755.393 262.586 749.435 247.837L748.036 247.202ZM265.069 228.363C260.455 229.427 244.118 232.839 240.792 235.409C224.962 247.647 209.305 268.463 198.461 285.099C194.823 290.679 184.317 309.549 184.47 314.3L185.294 315.072C195.031 311.748 204.863 308.705 214.775 305.948C221.465 285.94 232.084 268.555 245.42 252.21C248.137 248.881 265.535 230.496 265.721 228.743L265.069 228.363ZM810.052 229.078C794.255 234.7 772.852 240.363 756.477 244.715C760.261 269.073 759.56 283.804 754.307 308.108C754.081 309.155 754.177 309.021 754.307 310.252C765.926 306.853 793.813 299.696 803.643 295.909C810.516 276.327 815.013 251.069 811.404 230.482L810.052 229.078ZM503.703 290.501C501.1 294.904 494.185 305.507 493.272 309.528C495.709 310.201 494.435 310.089 497.239 309.319L510.425 306.165C508.912 301.881 506.565 292.863 503.703 290.501ZM471.489 245.894C461.491 248.981 452.325 251.95 442.077 254.094C441.552 260.665 437.521 302.196 438.482 305.359L439.869 303.941C451.077 285.165 463.923 265.623 474.497 246.865L473.983 245.948L471.489 245.894ZM522.322 261.645C518.314 268.863 514.087 275.958 509.647 282.919L515.542 303.649L517.076 304.679C519.108 304.124 521.339 302.857 522.154 301.109C525.247 294.476 524.438 268.891 523.428 262.827L522.322 261.645ZM310.935 216.289C305.754 217.495 284.693 222.055 281.864 224.473C262.661 240.886 231.395 277.092 224.085 301.516C224.4 302.068 224.821 302.955 225.239 303.335C241.182 297.724 257.254 294.296 273.407 289.379C280.262 265.384 289.169 247.159 304.304 227.027C306.271 224.409 312.054 218.608 311.094 216.391L310.935 216.289ZM850.046 218.198C841.431 220.605 825.619 225.531 817.384 227.046C818.292 232.356 819.228 237.705 819.56 243.102C820.092 251.731 819.553 260.32 818.18 268.862C816.918 276.723 815.284 284.724 812.483 292.21C812.736 292.726 812.989 293.242 813.243 293.757C821.878 291.156 834.055 287.132 842.592 285.417C850.087 267.993 856.67 236.933 851.399 219.018L850.046 218.198ZM626.025 281.231C620.327 281.696 603.679 285.784 599.336 289.226C604.775 293.48 610.126 291.634 617.719 292.065C622.368 292.209 625.364 292.843 628.003 288.865C630.728 284.758 629.629 283.18 626.025 281.231ZM605.158 170.702C560.101 171.084 515.043 171.149 469.986 170.897C469.953 183.335 469.758 195.773 469.398 208.207C490.232 207.915 511.069 207.887 531.903 208.125C532.695 231.966 532.472 266.653 531.174 290.374C540.782 275.192 549.477 259.603 559.211 244.535C574.003 221.742 591.558 194.107 605.158 170.702ZM353.034 205.29C343.399 207.6 333.815 210.119 324.289 212.841C312.33 227.099 283.279 267.81 282.038 285.854L283.221 286.858C291.551 284.522 300.257 282.216 308.513 279.737L353.757 206.862C353.443 205.825 353.632 205.68 353.034 205.29ZM626.424 229.736C622.042 237.033 599.589 274.36 599.798 280.078L600.324 280.726C609.834 278.645 618.607 275.717 627.652 273.651C627.427 264.027 627.44 237.668 626.424 229.736ZM387.267 244.66C384.878 248.476 377.059 259.484 377.426 263.084C387.463 260.445 388.747 258.607 387.558 245.409C387.462 245.159 387.364 244.91 387.267 244.66ZM709.513 180.075C703.256 181.994 695.729 184.511 689.507 186.132L689.806 256.801C699.733 253.188 710.559 250.209 720.749 247.222L748.305 239.705C743.144 223.106 725.874 187.978 711.449 180.056L709.513 180.075ZM459.589 176.332L448.406 178.717C446.71 201.664 444.793 224.597 442.655 247.509C449.064 245.589 462.527 241.098 468.498 239.86C471.965 239.009 476.162 238.087 479.513 237.074C484.49 229.991 487.591 223.935 491.648 216.306C483.605 216.736 469.315 218.635 462.774 214.997C458.232 209.157 463.534 180.173 460.332 176.306L459.589 176.332ZM768.542 164.272C752.334 168.919 736.063 173.342 719.733 177.541C733.499 192.277 741.706 204.698 750.318 223.17C752.517 227.886 753.02 234.702 755.572 237.8C758.378 237.378 758.495 237.396 761.086 236.319C776.626 231.358 793.96 226.843 809.88 222.863C804.26 203.022 792.321 185.175 777.682 170.795C775.595 168.744 771.415 164.821 768.542 164.272ZM381.331 144.897C333.568 166.844 293.428 187.288 253.6 223.362L253.757 224.634L254.771 224.86C259.584 223.606 274.077 220.099 277.55 217.828C288.124 210.913 298.157 199.707 308.536 192.172C332.34 174.889 356.131 160.942 381.68 146.525L382.374 145.196L381.331 144.897ZM808.013 152.117C798.58 155.677 786.821 158.798 776.929 161.147C793.094 175.966 805.975 189.853 813.04 210.926C813.977 213.719 815.603 219.415 817.992 220.536L818.332 220.474C828.808 217.453 839.513 214.216 850.114 211.776C840.436 185.642 830.89 169.28 808.013 152.117ZM367.622 162.21C349.56 171.003 308.401 198.443 294.639 212.831L294.779 213.999C298.494 212.992 314.072 209.768 316.181 208.529C330.763 199.961 341.473 183.742 355.02 173.384C359.273 170.109 363.194 166.851 367.33 163.649L367.622 162.21ZM406.864 144.904C399.117 148.982 389.477 154.663 382.763 160.161C371.047 167.444 342.18 193.421 333.093 204.12C341.956 201.691 350.853 199.377 359.776 197.175C363.62 191.127 378.208 166.066 383.237 163.318C390.688 163.894 401.44 150.428 406.864 144.904ZM623.072 131.063C611.323 134.586 598.122 137.716 586.858 141.263C596.796 146.896 606.635 153.836 614.532 162.148C624.817 162.181 680.643 161.329 687.675 164.191L689.493 180.211C696.414 177.259 699.946 176.351 707.104 174.54C683.817 155.202 666.378 144.682 637.134 134.777C633.692 133.611 626.267 130.861 623.072 131.063ZM763.221 159.025C750.216 146.677 677.909 115.669 663.271 120.147C654.356 122.76 645.214 125.335 636.421 128.272C667.557 137.439 690.932 149.821 714.79 172.39L736.747 166.332C745.363 163.91 754.585 161.145 763.221 159.025ZM456.34 119.68C446.391 130.25 437.339 149.409 432.382 163.069C437.566 162.916 443.527 161.887 447.645 164.288C449.59 167.109 449.344 167.98 449.548 171.574C454.383 171.581 466.952 164.55 469.594 160.815C468.518 154.689 459.049 124.847 456.34 119.68ZM523.799 158.13C520.37 159.159 512.929 161.007 510.483 162.991C511.994 164.079 512.823 163.783 514.746 163.72C518.937 163.793 524.381 164.252 528.107 162.754L528.052 161.143C527.188 160.506 524.595 158.495 523.799 158.13ZM439.779 129.065C425.565 136.972 409.466 150.376 398.577 162.509L399.123 163.35C407.924 163.056 416.73 162.836 425.536 162.694C429.371 150.775 438.685 135.766 440.453 129.721L439.779 129.065ZM463.35 117.956C463.835 121.468 475.636 155.084 477.86 163.235C490.748 161.096 501.166 157.347 512.733 155.172L517.349 153.797L518.004 152.407C510.18 142.954 475.74 117.738 463.35 117.956ZM576.337 144.166C562.123 148.564 547.375 152.345 532.983 156.213L538.706 163.079L565.252 162.929L605.993 163.119C600.393 158.31 583.063 143.938 576.337 144.166ZM711.004 108.268C701.083 110.813 690.379 113.784 680.46 116.034C718.452 125.437 740.585 134.628 772.293 156.7C783.452 153.196 792.405 150.529 803.755 147.893C771.407 125.196 748.91 117.71 711.004 108.268ZM568.004 139.316C558.495 128.407 499.284 116.061 483.085 117.253C487.468 121.411 496.246 126.421 501.595 129.991C511.881 136.858 519.094 142.771 527.817 151.419C538.266 148.263 548.733 145.169 559.217 142.135C561.686 141.525 566.569 140.796 568.004 139.316ZM527.538 116.035L527.562 116.741C546.329 121.908 562.698 126.785 579.568 137.117L600.75 130.585L612.643 127.571C588.727 121.713 556.443 115.686 531.695 115.458L527.538 116.035ZM591.481 110.933C585.375 111.528 574.24 110.287 571.1 112.833C588.302 115.458 607.756 119.183 624.067 125.097C631.178 122.363 641.975 119.721 649.951 117.02C633.174 114.31 608.352 110.723 591.481 110.933ZM698.039 105.104C647.543 96.9746 605.859 95.111 554.389 101.213C550.239 101.495 545.031 101.472 541.429 103.138C543.024 103.927 595.235 105.194 598.72 104.696C610.301 105.546 621.86 106.687 633.385 108.117C669.202 112.911 661.476 115.499 698.039 105.104Z" fill="black"/>
<path d="M618.143 297.949C637.943 299.077 629.019 295.992 634.982 289.751C645.572 294.686 670.397 313.442 683.222 320.664L683.677 355.704C672.036 346.549 653.863 335.304 641.232 326.838C630.909 319.919 608.691 304.361 598.086 299.451C602.217 297.246 612.815 297.999 618.143 297.949Z" fill="#FDED02"/>
<path d="M632.82 218.229C635.561 219.39 647.396 227.757 650.437 229.828C661.283 237.208 672.193 244.494 683.165 251.685C683.111 262.644 683.24 273.602 683.553 284.556C680.059 284.406 638.735 255.435 633.856 251.89C633.16 240.683 632.814 229.457 632.82 218.229Z" fill="#FDED02"/>
<path d="M534.825 293.483C555.479 306.959 579.305 323.489 600.419 335.589L578.503 335.284C567.125 335.021 562.542 331.301 556.712 342.668C548.951 336.178 529.267 323.393 520.516 318.276C524.435 310.662 530.413 301.256 534.825 293.483Z" fill="#FDED02"/>
<path d="M613.5 169.201C622.903 168.279 651.272 169.193 661.51 169.475C667.984 174.72 675.215 179.05 682.262 183.513L682.69 215.01C678.568 214.207 617.552 173.181 613.5 169.201Z" fill="#FDED02"/>
<path d="M505.262 343.404C517.311 351.556 529.299 359.923 541.734 367.459C537.065 375.782 531.982 383.638 527.249 392.244C522.43 389.95 501.316 373.402 490.891 367.64C495.912 359.7 500.704 351.618 505.262 343.404Z" fill="#FDED02"/>
<path d="M566.921 243.912C572.892 246.883 591.188 259.998 599.337 264.767L584.981 290.37C577.714 283.472 560.712 273.209 551.641 267.486C556.906 259.74 562 251.88 566.921 243.912Z" fill="#FDED02"/>
<path d="M597.839 194.424C601.652 196.275 623.583 211.197 628.727 214.507C623.294 222.574 618.728 230.723 613.891 239.154C605.275 234.24 591.492 224.277 582.648 218.406C588.405 210.237 592.852 203.041 597.839 194.424Z" fill="#FDED02"/>
<path d="M630.297 355.271C638.729 360.882 680.032 386.37 683.032 392.667C670.367 393.161 642.483 392.728 630.887 389.789L630.297 355.271Z" fill="#FDED02"/>
<path d="M1113.29 293.243C1187.78 284.103 1198.57 394.821 1129.56 407.809C1056.46 416.65 1043.85 306.975 1113.29 293.243ZM1119.69 308.316C1077.11 315.388 1077.86 389.734 1123.96 392.75C1168.77 381.552 1160.57 308.387 1119.69 308.316Z" fill="black"/>
<path d="M1008.73 253.976L1028.48 253.925L1028.46 356.201C1028.46 368.55 1029.22 394.807 1028.01 406.075L1007.91 406.269C988.122 374.544 968.498 342.714 949.043 310.782C942.69 300.221 936.766 288.265 930.661 278.38C933.766 322.127 932.084 362.274 933.001 405.881L913.461 406.015L914.032 253.883C921.473 253.996 929.091 253.938 936.548 253.963C963.282 298.11 988.037 334.963 1012 381.112C1006.58 344.25 1009.65 292.828 1008.73 253.976Z" fill="black"/>
<path d="M1715.96 253.956C1723.87 254.092 1732.1 253.976 1740.04 253.975C1744.06 267.255 1749.96 281.533 1754.36 294.851C1766.52 331.592 1781.58 369.425 1793.11 406.131C1785.87 405.704 1776.9 405.939 1769.5 405.946C1765.32 390.677 1759.3 374.277 1754.67 358.775L1741.56 358.688L1699.96 358.793C1695.55 373.891 1689.51 390.254 1684.76 405.801C1677.63 405.651 1670 405.864 1662.82 405.934L1715.96 253.956ZM1726.73 272.671C1722.1 289.458 1711.25 327.421 1704.13 342.913L1726.06 342.667C1734.05 342.722 1742.41 342.66 1750.37 342.895C1747.06 335.359 1726.87 272.876 1726.73 272.671Z" fill="black"/>
<path d="M1482.09 292.916C1518.99 292.173 1526.51 324.272 1526.54 354.172C1501.66 354.275 1476.78 354.241 1451.9 354.07C1452.04 355.074 1452.19 356.077 1452.35 357.08C1457.34 388.746 1476.49 395.863 1505.6 390.552C1510.85 389.01 1513.33 387.899 1518.33 385.568C1518.45 391.077 1518.92 396.906 1519.26 402.431C1421.59 438.663 1404.33 309.675 1474.67 293.363C1477.13 293.1 1479.61 292.951 1482.09 292.916ZM1507.65 340.196C1504.8 320.673 1499.71 306.374 1476.39 308.289C1459.69 313.926 1455.7 324.385 1451.74 340.625C1461.36 340.424 1471.48 340.056 1481.06 340.117L1507.65 340.196Z" fill="black"/>
<path d="M1315.7 253.95C1350.1 254.953 1390.88 254.46 1425.45 253.854L1425.39 271.721C1410.62 271.269 1395.05 271.51 1380.21 271.511L1380.36 364.178L1380.47 405.938C1373.67 405.718 1366.18 405.925 1359.33 405.972C1359.93 361.325 1359.58 315.801 1359.65 271.084C1344.93 271.11 1330.21 271.391 1315.5 271.928C1316.02 266.536 1315.75 259.487 1315.7 253.95Z" fill="black"/>
<path d="M1199.64 295.137L1222.24 295.068C1232.05 328.241 1244.18 353.173 1251.97 388.897C1258.09 362.339 1273.32 322.53 1282.68 295.788C1289.56 295.393 1297.41 295.334 1304.36 295.138L1298.39 310.827C1294.68 319.11 1290.18 331.962 1286.79 340.676C1278.32 362.547 1269.74 384.373 1261.05 406.154L1241.11 406.148C1229.64 370.596 1212.79 330.856 1199.64 295.137Z" fill="black"/>
<path d="M1846.99 293.301C1861.43 291.974 1868.4 293.437 1881.85 297.676C1880.71 303.096 1880.25 309.452 1879.71 315.029C1870.46 310.963 1862.49 307.768 1852.43 308.574C1840.09 309.424 1829.64 323.525 1841.78 332.842C1849.17 338.467 1858.42 341.767 1866.75 346.03C1887.21 356.5 1896.16 374.89 1880.94 394.652C1873.11 404.825 1862.02 407.047 1849.79 408.519C1837.69 409.038 1828.13 406.492 1817 402.304C1817.95 396.793 1818.5 390.277 1819.11 384.647C1829.31 389.295 1869.9 405.135 1867.42 372.662C1864.98 363.704 1846.74 356.45 1839.72 353.384C1804.81 338.137 1810.86 302.509 1846.99 293.301Z" fill="black"/>
<path d="M1604.42 293.29C1618.83 292.048 1626.19 293.152 1639.69 297.645L1636.95 314.61C1625.74 309.924 1612.55 307.105 1600.74 311.638C1569.42 323.661 1568.39 376.569 1599.59 389.353C1612.81 394.771 1624.04 391.453 1636.41 386.086L1637.05 386.21C1638.84 388.385 1639.43 399.112 1639.86 402.836C1619.09 409.937 1596.68 411.842 1577.8 398.649C1551.78 380.546 1548.78 339.36 1566.91 314.752C1576.62 301.589 1588.58 295.731 1604.42 293.29Z" fill="black"/>
<path d="M1875.14 455.297C1879.81 455.297 1883.29 456.326 1885.57 458.385C1887.86 460.398 1889 463.577 1889 467.922V492.967H1883.86L1882.42 487.821H1882.14C1881.09 489.148 1879.99 490.246 1878.85 491.115C1877.75 491.984 1876.47 492.624 1875.01 493.036C1873.59 493.448 1871.85 493.653 1869.79 493.653C1867.6 493.653 1865.61 493.265 1863.82 492.487C1862.08 491.664 1860.71 490.428 1859.7 488.782C1858.7 487.089 1858.2 484.985 1858.2 482.469C1858.2 478.718 1859.61 475.859 1862.45 473.892C1865.33 471.925 1869.7 470.85 1875.56 470.667L1881.87 470.461V468.403C1881.87 465.658 1881.25 463.737 1880.02 462.639C1878.78 461.541 1877.04 460.992 1874.8 460.992C1872.88 460.992 1871.05 461.267 1869.31 461.816C1867.57 462.365 1865.93 463.028 1864.37 463.805L1862.04 458.522C1863.78 457.607 1865.77 456.852 1868.01 456.258C1870.29 455.617 1872.67 455.297 1875.14 455.297ZM1876.86 475.333C1872.65 475.516 1869.72 476.225 1868.08 477.46C1866.47 478.649 1865.67 480.342 1865.67 482.538C1865.67 484.459 1866.25 485.854 1867.39 486.723C1868.58 487.592 1870.07 488.027 1871.85 488.027C1874.73 488.027 1877.11 487.226 1878.99 485.625C1880.86 484.024 1881.8 481.623 1881.8 478.421V475.196L1876.86 475.333Z" fill="black"/>
<path d="M1853.59 461.816H1841.51V492.967H1834.3V461.816H1822.3V455.983H1853.59V461.816Z" fill="black"/>
<path d="M1805.91 470.873C1809.3 470.873 1812.09 471.285 1814.28 472.108C1816.53 472.886 1818.2 474.052 1819.29 475.608C1820.44 477.163 1821.01 479.13 1821.01 481.509C1821.01 483.841 1820.48 485.877 1819.43 487.615C1818.38 489.308 1816.73 490.634 1814.49 491.595C1812.25 492.51 1809.37 492.967 1805.84 492.967H1788.83V455.983H1796.1V470.873H1805.91ZM1813.74 481.783C1813.74 479.77 1813 478.398 1811.54 477.666C1810.12 476.888 1808.06 476.5 1805.36 476.5H1796.1V487.478H1805.5C1807.93 487.478 1809.89 487.044 1811.4 486.174C1812.96 485.305 1813.74 483.841 1813.74 481.783Z" fill="black"/>
<path d="M1777.47 492.967H1770.13V461.816H1759.7C1759.24 467.488 1758.67 472.36 1757.98 476.431C1757.34 480.456 1756.5 483.727 1755.44 486.243C1754.44 488.759 1753.18 490.612 1751.67 491.801C1750.21 492.945 1748.45 493.516 1746.39 493.516C1745.66 493.516 1744.95 493.448 1744.26 493.31C1743.57 493.219 1742.98 493.059 1742.48 492.83V487.272C1742.8 487.364 1743.14 487.455 1743.51 487.547C1743.92 487.592 1744.33 487.615 1744.74 487.615C1745.66 487.615 1746.48 487.249 1747.21 486.517C1747.99 485.786 1748.67 484.642 1749.27 483.087C1749.91 481.531 1750.48 479.519 1750.98 477.048C1751.53 474.533 1751.99 471.536 1752.36 468.06C1752.77 464.583 1753.13 460.558 1753.46 455.983H1777.47V492.967Z" fill="black"/>
<path d="M1722.76 455.297C1727.43 455.297 1730.9 456.326 1733.19 458.385C1735.48 460.398 1736.62 463.577 1736.62 467.922V492.967H1731.47L1730.03 487.821H1729.76C1728.71 489.148 1727.61 490.246 1726.47 491.115C1725.37 491.984 1724.09 492.624 1722.62 493.036C1721.21 493.448 1719.47 493.653 1717.41 493.653C1715.21 493.653 1713.22 493.265 1711.44 492.487C1709.7 491.664 1708.33 490.428 1707.32 488.782C1706.32 487.089 1705.81 484.985 1705.81 482.469C1705.81 478.718 1707.23 475.859 1710.07 473.892C1712.95 471.925 1717.32 470.85 1723.17 470.667L1729.49 470.461V468.403C1729.49 465.658 1728.87 463.737 1727.63 462.639C1726.4 461.541 1724.66 460.992 1722.42 460.992C1720.5 460.992 1718.67 461.267 1716.93 461.816C1715.19 462.365 1713.54 463.028 1711.99 463.805L1709.65 458.522C1711.39 457.607 1713.38 456.852 1715.62 456.258C1717.91 455.617 1720.29 455.297 1722.76 455.297ZM1724.48 475.333C1720.27 475.516 1717.34 476.225 1715.69 477.46C1714.09 478.649 1713.29 480.342 1713.29 482.538C1713.29 484.459 1713.86 485.854 1715.01 486.723C1716.2 487.592 1717.68 488.027 1719.47 488.027C1722.35 488.027 1724.73 487.226 1726.6 485.625C1728.48 484.024 1729.42 481.623 1729.42 478.421V475.196L1724.48 475.333Z" fill="black"/>
<path d="M1680.43 455.572C1684.31 455.892 1687.65 456.875 1690.44 458.522C1693.23 460.123 1695.38 462.273 1696.89 464.972C1698.4 467.671 1699.16 470.85 1699.16 474.51C1699.16 478.123 1698.43 481.303 1696.96 484.047C1695.5 486.746 1693.37 488.919 1690.58 490.566C1687.84 492.167 1684.45 493.127 1680.43 493.448V509.435H1673.5V493.448C1669.65 493.082 1666.31 492.098 1663.48 490.497C1660.69 488.896 1658.51 486.746 1656.96 484.047C1655.45 481.303 1654.7 478.123 1654.7 474.51C1654.7 470.804 1655.43 467.579 1656.89 464.835C1658.35 462.09 1660.48 459.94 1663.27 458.385C1666.11 456.784 1669.56 455.846 1673.63 455.572V440.819H1680.43V455.572ZM1673.63 461.335C1671.07 461.61 1668.94 462.319 1667.25 463.462C1665.56 464.56 1664.3 466.047 1663.48 467.923C1662.65 469.752 1662.24 471.948 1662.24 474.51C1662.24 477.026 1662.65 479.221 1663.48 481.097C1664.3 482.972 1665.56 484.482 1667.25 485.625C1668.94 486.723 1671.07 487.409 1673.63 487.684V461.335ZM1680.43 487.684C1682.99 487.364 1685.09 486.655 1686.74 485.557C1688.39 484.459 1689.62 482.972 1690.44 481.097C1691.27 479.221 1691.68 477.026 1691.68 474.51C1691.68 471.948 1691.24 469.752 1690.38 467.923C1689.55 466.047 1688.32 464.56 1686.67 463.462C1685.02 462.365 1682.94 461.678 1680.43 461.404V487.684Z" fill="black"/>
<path d="M1638.14 493.653C1634.76 493.653 1631.78 492.99 1629.22 491.664C1626.66 490.337 1624.67 488.279 1623.25 485.488C1621.83 482.652 1621.12 479.061 1621.12 474.715C1621.12 470.141 1621.88 466.436 1623.39 463.6C1624.94 460.764 1627.03 458.682 1629.63 457.356C1632.29 455.983 1635.31 455.297 1638.69 455.297C1640.75 455.297 1642.67 455.526 1644.45 455.983C1646.28 456.395 1647.79 456.875 1648.98 457.424L1646.79 463.325C1645.51 462.822 1644.13 462.387 1642.67 462.021C1641.25 461.656 1639.9 461.473 1638.62 461.473C1636.33 461.473 1634.44 461.976 1632.93 462.982C1631.46 463.943 1630.37 465.407 1629.63 467.374C1628.95 469.295 1628.6 471.719 1628.6 474.647C1628.6 477.437 1628.97 479.793 1629.7 481.714C1630.43 483.636 1631.51 485.099 1632.93 486.106C1634.39 487.066 1636.2 487.547 1638.35 487.547C1640.41 487.547 1642.21 487.318 1643.77 486.86C1645.32 486.403 1646.79 485.808 1648.16 485.076V491.389C1646.83 492.167 1645.39 492.739 1643.84 493.105C1642.28 493.47 1640.38 493.653 1638.14 493.653Z" fill="black"/>
<path d="M1609.72 492.967L1604.5 478.832H1585.56L1580.35 492.967H1572.66L1591.26 443.77H1598.94L1617.47 492.967H1609.72ZM1597.5 458.591C1597.37 458.088 1597.11 457.333 1596.75 456.326C1596.43 455.274 1596.11 454.222 1595.79 453.17C1595.47 452.072 1595.22 451.18 1595.03 450.494C1594.8 451.409 1594.53 452.415 1594.21 453.513C1593.93 454.565 1593.66 455.549 1593.39 456.464C1593.11 457.333 1592.88 458.042 1592.7 458.591L1587.76 472.383H1602.44L1597.5 458.591Z" fill="black"/>
<path d="M1521.23 476.156C1521.23 476.705 1521.2 477.414 1521.16 478.284C1521.11 479.153 1521.07 480.068 1521.02 481.028C1520.98 481.943 1520.91 482.812 1520.82 483.636C1520.77 484.413 1520.72 485.031 1520.68 485.488L1539.68 455.983H1548.54V492.967H1541.67V473.275C1541.67 472.405 1541.7 471.33 1541.74 470.05C1541.79 468.769 1541.83 467.534 1541.88 466.344C1541.97 465.109 1542.04 464.172 1542.09 463.531L1523.22 492.967H1514.3V455.983H1521.23V476.156Z" fill="black"/>
<path d="M1475.53 476.156C1475.53 476.705 1475.51 477.414 1475.46 478.284C1475.42 479.153 1475.37 480.068 1475.33 481.028C1475.28 481.943 1475.21 482.812 1475.12 483.636C1475.07 484.413 1475.03 485.031 1474.98 485.488L1493.99 455.983H1502.84V492.967H1495.98V473.275C1495.98 472.405 1496 471.33 1496.05 470.05C1496.09 468.769 1496.14 467.534 1496.19 466.344C1496.28 465.109 1496.35 464.172 1496.39 463.531L1477.52 492.967H1468.6V455.983H1475.53V476.156Z" fill="black"/>
<path d="M1461.44 455.983V461.816H1445.25V492.967H1437.98V455.983H1461.44Z" fill="black"/>
<path d="M1428.76 474.441C1428.76 477.506 1428.35 480.228 1427.52 482.606C1426.7 484.985 1425.53 486.998 1424.02 488.644C1422.51 490.291 1420.68 491.549 1418.53 492.418C1416.38 493.242 1413.96 493.653 1411.26 493.653C1408.79 493.653 1406.5 493.242 1404.4 492.418C1402.3 491.549 1400.47 490.291 1398.91 488.644C1397.4 486.998 1396.21 484.985 1395.34 482.606C1394.47 480.228 1394.04 477.483 1394.04 474.372C1394.04 470.301 1394.73 466.847 1396.1 464.011C1397.52 461.175 1399.53 459.025 1402.14 457.561C1404.79 456.052 1407.9 455.297 1411.47 455.297C1414.85 455.297 1417.83 456.052 1420.39 457.561C1422.99 459.025 1425.03 461.175 1426.49 464.011C1428 466.847 1428.76 470.324 1428.76 474.441ZM1401.52 474.441C1401.52 477.186 1401.86 479.564 1402.55 481.577C1403.23 483.544 1404.31 485.054 1405.77 486.106C1407.24 487.158 1409.11 487.684 1411.4 487.684C1413.69 487.684 1415.56 487.158 1417.03 486.106C1418.49 485.054 1419.56 483.544 1420.25 481.577C1420.94 479.564 1421.28 477.186 1421.28 474.441C1421.28 471.605 1420.91 469.226 1420.18 467.305C1419.5 465.384 1418.42 463.92 1416.96 462.913C1415.54 461.861 1413.66 461.335 1411.33 461.335C1407.9 461.335 1405.41 462.479 1403.85 464.766C1402.3 467.053 1401.52 470.278 1401.52 474.441Z" fill="black"/>
<path d="M1384.8 492.967H1377.46V461.816H1367.03C1366.57 467.488 1366 472.36 1365.31 476.431C1364.67 480.456 1363.83 483.727 1362.77 486.243C1361.77 488.759 1360.51 490.612 1359 491.801C1357.54 492.945 1355.77 493.516 1353.72 493.516C1352.98 493.516 1352.27 493.448 1351.59 493.31C1350.9 493.219 1350.31 493.059 1349.8 492.83V487.272C1350.12 487.364 1350.47 487.455 1350.83 487.547C1351.25 487.592 1351.66 487.615 1352.07 487.615C1352.98 487.615 1353.81 487.249 1354.54 486.517C1355.32 485.786 1356 484.642 1356.6 483.087C1357.24 481.531 1357.81 479.519 1358.31 477.048C1358.86 474.533 1359.32 471.536 1359.69 468.06C1360.1 464.583 1360.46 460.558 1360.78 455.983H1384.8V492.967Z" fill="black"/>
<path d="M1345.94 474.441C1345.94 477.506 1345.53 480.228 1344.7 482.606C1343.88 484.985 1342.71 486.998 1341.2 488.644C1339.69 490.291 1337.86 491.549 1335.71 492.418C1333.56 493.242 1331.14 493.653 1328.44 493.653C1325.97 493.653 1323.68 493.242 1321.58 492.418C1319.48 491.549 1317.65 490.291 1316.09 488.644C1314.58 486.998 1313.39 484.985 1312.52 482.606C1311.65 480.228 1311.22 477.483 1311.22 474.372C1311.22 470.301 1311.9 466.847 1313.28 464.011C1314.7 461.175 1316.71 459.025 1319.32 457.561C1321.97 456.052 1325.08 455.297 1328.65 455.297C1332.03 455.297 1335.01 456.052 1337.57 457.561C1340.17 459.025 1342.21 461.175 1343.67 464.011C1345.18 466.847 1345.94 470.324 1345.94 474.441ZM1318.7 474.441C1318.7 477.186 1319.04 479.564 1319.73 481.577C1320.41 483.544 1321.49 485.054 1322.95 486.106C1324.42 487.158 1326.29 487.684 1328.58 487.684C1330.87 487.684 1332.74 487.158 1334.21 486.106C1335.67 485.054 1336.74 483.544 1337.43 481.577C1338.12 479.564 1338.46 477.186 1338.46 474.441C1338.46 471.605 1338.09 469.226 1337.36 467.305C1336.68 465.384 1335.6 463.92 1334.14 462.913C1332.72 461.861 1330.84 461.335 1328.51 461.335C1325.08 461.335 1322.59 462.479 1321.03 464.766C1319.48 467.053 1318.7 470.278 1318.7 474.441Z" fill="black"/>
<path d="M1276.46 455.983V471.01H1294.71V455.983H1301.99V492.967H1294.71V476.843H1276.46V492.967H1269.19V455.983H1276.46Z" fill="black"/>
<path d="M1240.36 474.098L1227.81 455.983H1236.11L1244.89 469.295L1253.67 455.983H1261.91L1249.35 474.098L1262.52 492.967H1254.29L1244.89 478.833L1235.42 492.967H1227.19L1240.36 474.098Z" fill="black"/>
<path d="M1207.2 455.297C1210.45 455.297 1213.24 455.983 1215.58 457.356C1217.91 458.682 1219.69 460.603 1220.93 463.119C1222.21 465.635 1222.85 468.609 1222.85 472.039V476.019H1198.01C1198.1 479.816 1199.09 482.721 1200.96 484.733C1202.88 486.746 1205.56 487.752 1208.99 487.752C1211.37 487.752 1213.47 487.547 1215.3 487.135C1217.18 486.677 1219.1 486.014 1221.07 485.145V491.183C1219.24 492.007 1217.36 492.624 1215.44 493.036C1213.56 493.448 1211.32 493.653 1208.71 493.653C1205.15 493.653 1201.99 492.944 1199.25 491.526C1196.5 490.108 1194.35 488.004 1192.8 485.214C1191.29 482.378 1190.53 478.901 1190.53 474.784C1190.53 470.621 1191.22 467.099 1192.59 464.217C1194.01 461.335 1195.95 459.14 1198.42 457.63C1200.94 456.075 1203.87 455.297 1207.2 455.297ZM1207.2 460.924C1204.6 460.924 1202.49 461.77 1200.89 463.462C1199.34 465.155 1198.42 467.557 1198.15 470.667H1215.58C1215.58 468.746 1215.28 467.053 1214.68 465.59C1214.09 464.126 1213.17 462.982 1211.94 462.159C1210.7 461.335 1209.13 460.924 1207.2 460.924Z" fill="black"/>
<path d="M1176.11 492.967H1168.7V450.357H1154.02V443.976H1190.79V450.357H1176.11V492.967Z" fill="black"/>
<path d="M1115.74 455.297C1118.99 455.297 1121.78 455.983 1124.12 457.356C1126.45 458.682 1128.23 460.603 1129.47 463.119C1130.75 465.635 1131.39 468.609 1131.39 472.039V476.019H1106.55C1106.64 479.816 1107.62 482.721 1109.5 484.733C1111.42 486.746 1114.1 487.752 1117.53 487.752C1119.91 487.752 1122.01 487.547 1123.84 487.135C1125.72 486.677 1127.64 486.014 1129.6 485.145V491.183C1127.77 492.007 1125.9 492.624 1123.98 493.036C1122.1 493.448 1119.86 493.653 1117.25 493.653C1113.69 493.653 1110.53 492.944 1107.78 491.526C1105.04 490.108 1102.89 488.004 1101.33 485.214C1099.83 482.378 1099.07 478.901 1099.07 474.784C1099.07 470.621 1099.76 467.099 1101.13 464.217C1102.55 461.335 1104.49 459.14 1106.96 457.63C1109.48 456.075 1112.4 455.297 1115.74 455.297ZM1115.74 460.924C1113.14 460.924 1111.03 461.77 1109.43 463.462C1107.88 465.155 1106.96 467.557 1106.69 470.667H1124.12C1124.12 468.746 1123.82 467.053 1123.22 465.59C1122.63 464.126 1121.71 462.982 1120.48 462.159C1119.24 461.335 1117.67 460.924 1115.74 460.924Z" fill="black"/>
<path d="M1046.38 492.967V455.983H1053.66V470.873H1061.82C1065.21 470.873 1068 471.285 1070.19 472.108C1072.39 472.886 1074.01 474.052 1075.06 475.608C1076.12 477.163 1076.64 479.13 1076.64 481.509C1076.64 483.841 1076.12 485.877 1075.06 487.615C1074.06 489.308 1072.46 490.634 1070.26 491.595C1068.11 492.51 1065.28 492.967 1061.75 492.967H1046.38ZM1061.2 487.478C1063.63 487.478 1065.6 487.066 1067.1 486.243C1068.66 485.374 1069.44 483.887 1069.44 481.783C1069.44 479.77 1068.73 478.398 1067.31 477.666C1065.89 476.888 1063.86 476.5 1061.2 476.5H1053.66V487.478H1061.2ZM1082.54 492.967V455.983H1089.82V492.967H1082.54Z" fill="black"/>
<path d="M1036.44 465.384C1036.44 467.625 1035.76 469.409 1034.39 470.736C1033.06 472.017 1031.28 472.886 1029.03 473.343V473.618C1031.41 473.938 1033.43 474.784 1035.07 476.156C1036.76 477.483 1037.61 479.45 1037.61 482.057C1037.61 483.658 1037.31 485.122 1036.72 486.449C1036.12 487.775 1035.21 488.942 1033.97 489.948C1032.74 490.909 1031.14 491.664 1029.17 492.213C1027.25 492.716 1024.92 492.967 1022.17 492.967H1005.77V455.983H1022.17C1024.87 455.983 1027.3 456.281 1029.45 456.875C1031.6 457.47 1033.29 458.454 1034.52 459.826C1035.8 461.198 1036.44 463.051 1036.44 465.384ZM1030.06 481.92C1030.06 479.999 1029.33 478.627 1027.87 477.803C1026.4 476.934 1024.23 476.5 1021.35 476.5H1013.05V487.478H1021.49C1024.19 487.478 1026.29 487.066 1027.8 486.243C1029.31 485.374 1030.06 483.933 1030.06 481.92ZM1029.03 466.207C1029.03 464.606 1028.46 463.44 1027.32 462.708C1026.18 461.976 1024.32 461.61 1021.76 461.61H1013.05V470.942H1020.66C1023.41 470.942 1025.49 470.576 1026.91 469.844C1028.33 469.066 1029.03 467.854 1029.03 466.207Z" fill="black"/>
<path d="M996.563 474.441C996.563 477.506 996.152 480.228 995.328 482.606C994.505 484.985 993.338 486.998 991.829 488.644C990.319 490.291 988.49 491.549 986.34 492.418C984.19 493.242 981.765 493.653 979.066 493.653C976.596 493.653 974.309 493.242 972.205 492.418C970.101 491.549 968.271 490.291 966.715 488.644C965.206 486.998 964.017 484.985 963.147 482.606C962.278 480.228 961.844 477.483 961.844 474.372C961.844 470.301 962.53 466.847 963.902 464.011C965.32 461.175 967.333 459.025 969.94 457.561C972.594 456.052 975.704 455.297 979.272 455.297C982.657 455.297 985.631 456.052 988.192 457.561C990.8 459.025 992.835 461.175 994.299 464.011C995.809 466.847 996.563 470.324 996.563 474.441ZM969.323 474.441C969.323 477.186 969.666 479.564 970.352 481.577C971.038 483.544 972.113 485.054 973.577 486.106C975.041 487.158 976.916 487.684 979.204 487.684C981.491 487.684 983.366 487.158 984.83 486.106C986.294 485.054 987.369 483.544 988.055 481.577C988.741 479.564 989.084 477.186 989.084 474.441C989.084 471.605 988.718 469.226 987.986 467.305C987.3 465.384 986.225 463.92 984.761 462.913C983.343 461.861 981.468 461.335 979.135 461.335C975.704 461.335 973.211 462.479 971.656 464.766C970.101 467.053 969.323 470.278 969.323 474.441Z" fill="black"/>
<path d="M951.68 492.967H944.269V470.599H920.871V492.967H913.461V443.976H920.871V464.286H944.269V443.976H951.68V492.967Z" fill="black"/>
</svg>
